<?xml version="1.0"?>
<!DOCTYPE svg PUBLIC "-//W3C//DTD SVG 1.1//EN" "http://www.w3.org/Graphics/SVG/1.1/DTD/svg11.dtd">
<svg width="1024px" height="1024px" viewBox="0 0 1024 1024" xmlns="http://www.w3.org/2000/svg" version="1.1">
<desc>UV-Map from Object: Body. Exported from Blender3D with UV Exportscript</desc>
<rect x="0" y="0" width="1024" height="1024" fill="none" stroke="blue" stroke-width="1px" />
<g style="fill:#F2DAF2; stroke:black; stroke-width:1px;">
<polygon points="155.739,155.739 204.900,284.264 243.957,287.767 " />
<polygon points="155.739,155.739 243.957,287.767 287.767,243.957 " />
<polygon points="155.739,155.739 287.767,243.957 311.477,186.717 " />
<polygon points="155.739,155.739 311.477,186.717 311.477,124.760 " />
<polygon points="155.739,155.739 311.477,124.760 287.767,67.520 " />
<polygon points="155.739,155.739 287.767,67.520 243.957,23.710 " />
<polygon points="155.739,155.739 243.957,23.710 186.717,0.000 " />
<polygon points="155.739,155.739 186.717,0.000 124.760,0.000 " />
<polygon points="155.739,155.739 124.760,0.000 67.520,23.710 " />
<polygon points="155.739,155.739 67.520,23.710 23.710,67.520 " />
<polygon points="155.739,155.739 23.710,67.520 0.000,124.760 " />
<polygon points="155.739,155.739 0.000,124.760 18.183,159.504 " />
<polygon points="155.739,155.739 18.183,159.504 60.076,189.532 " />
<polygon points="155.739,155.739 60.076,189.532 116.426,214.575 " />
<polygon points="155.739,155.739 116.426,214.575 161.126,257.052 " />
<polygon points="161.126,257.052 204.900,284.264 155.739,155.739 " />
<polygon points="679.954,596.835 434.934,287.767 638.917,622.298 " />
<polygon points="765.174,989.033 679.954,596.835 638.917,622.298 712.605,1006.013 " />
<polygon points="638.917,622.298 434.934,287.767 596.261,639.727 " />
<polygon points="712.605,1006.013 638.917,622.298 596.261,639.727 657.597,1013.035 " />
<polygon points="596.261,639.727 434.934,287.767 554.842,653.114 " />
<polygon points="657.597,1013.035 596.261,639.727 554.842,653.114 601.989,1018.531 " />
<polygon points="554.842,653.114 434.934,287.767 514.313,662.498 " />
<polygon points="601.989,1018.531 554.842,653.114 514.313,662.498 546.319,1022.227 " />
<polygon points="514.313,662.498 434.934,287.767 474.417,667.935 " />
<polygon points="546.319,1022.227 514.313,662.498 474.417,667.935 490.616,1024.000 " />
<polygon points="474.417,667.935 434.934,287.767 434.933,669.505 " />
<polygon points="490.616,1024.000 474.417,667.935 434.933,669.505 434.933,1023.754 " />
<polygon points="434.933,669.505 434.934,287.767 395.450,667.935 " />
<polygon points="434.933,1023.754 434.933,669.505 395.450,667.935 379.251,1024.000 " />
<polygon points="395.450,667.935 434.934,287.767 355.554,662.498 " />
<polygon points="379.251,1024.000 395.450,667.935 355.554,662.498 323.548,1022.227 " />
<polygon points="355.554,662.498 434.934,287.767 315.025,653.114 " />
<polygon points="323.548,1022.227 355.554,662.498 315.025,653.114 267.878,1018.531 " />
<polygon points="315.025,653.114 434.934,287.767 273.606,639.727 " />
<polygon points="267.878,1018.531 315.025,653.114 273.606,639.727 212.270,1013.034 " />
<polygon points="273.606,639.727 434.934,287.767 230.950,622.298 " />
<polygon points="212.270,1013.034 273.606,639.727 230.950,622.298 157.261,1006.013 " />
<polygon points="230.950,622.298 434.934,287.767 189.914,596.835 " />
<polygon points="157.261,1006.013 230.950,622.298 189.914,596.835 104.693,989.032 " />
<polygon points="189.914,596.835 434.934,287.767 147.484,568.079 " />
<polygon points="104.693,989.032 189.914,596.835 147.484,568.079 52.770,970.401 " />
<polygon points="147.484,568.079 434.934,287.767 101.641,536.987 " />
<polygon points="52.770,970.401 147.484,568.079 101.641,536.987 0.000,953.015 " />
<polygon points="768.226,536.987 434.934,287.767 722.383,568.079 " />
<polygon points="869.867,953.016 768.226,536.987 722.383,568.079 817.097,970.402 " />
<polygon points="722.383,568.079 434.934,287.767 679.954,596.835 " />
<polygon points="679.954,596.835 765.174,989.033 817.097,970.402 722.383,568.079 " />
</g>
</svg>