<?xml version="1.0" encoding="UTF-8" standalone="no"?>
<svg
   xmlns:dc="http://purl.org/dc/elements/1.1/"
   xmlns:cc="http://creativecommons.org/ns#"
   xmlns:rdf="http://www.w3.org/1999/02/22-rdf-syntax-ns#"
   xmlns:svg="http://www.w3.org/2000/svg"
   xmlns="http://www.w3.org/2000/svg"
   xmlns:sodipodi="http://sodipodi.sourceforge.net/DTD/sodipodi-0.dtd"
   xmlns:inkscape="http://www.inkscape.org/namespaces/inkscape"
   width="1024px"
   height="1024px"
   viewBox="0 0 1024 1024"
   version="1.1"
   id="svg3250"
   inkscape:version="0.48.0 r9654"
   sodipodi:docname="shuttle-texture.svg"
   inkscape:export-filename="/home/niko/git/rainbowshuttle/shuttle-texture.png"
   inkscape:export-xdpi="90"
   inkscape:export-ydpi="90">
  <metadata
     id="metadata3358">
    <rdf:RDF>
      <cc:Work
         rdf:about="">
        <dc:format>image/svg+xml</dc:format>
        <dc:type
           rdf:resource="http://purl.org/dc/dcmitype/StillImage" />
        <dc:title></dc:title>
      </cc:Work>
    </rdf:RDF>
  </metadata>
  <defs
     id="defs3356" />
  <sodipodi:namedview
     pagecolor="#ffffff"
     bordercolor="#666666"
     borderopacity="1"
     objecttolerance="10"
     gridtolerance="10"
     guidetolerance="10"
     inkscape:pageopacity="0"
     inkscape:pageshadow="2"
     inkscape:window-width="1280"
     inkscape:window-height="949"
     id="namedview3354"
     showgrid="false"
     inkscape:zoom="0.71539319"
     inkscape:cx="541.3439"
     inkscape:cy="504.40773"
     inkscape:window-x="0"
     inkscape:window-y="25"
     inkscape:window-maximized="1"
     inkscape:current-layer="layer1" />
  <desc
     id="desc3252">UV-Map from Object: Body. Exported from Blender3D with UV Exportscript</desc>
  <g
     inkscape:groupmode="layer"
     id="layer1"
     inkscape:label="Taso"
     style="display:inline">
    <g
       id="g3710"
       transform="matrix(0.99884097,-0.66588525,0.66588525,0.99884097,559.36133,149.19562)">
      <polygon
         points="155.739,155.739 204.9,284.264 243.957,287.767 "
         id="polygon3258"
         style="fill:#96483e;stroke:#000000;stroke-width:1px;fill-opacity:1" />
      <polygon
         points="155.739,155.739 243.957,287.767 287.767,243.957 "
         id="polygon3260"
         style="fill:#96483e;stroke:#000000;stroke-width:1px;fill-opacity:1" />
      <polygon
         points="155.739,155.739 287.767,243.957 311.477,186.717 "
         id="polygon3262"
         style="fill:#96483e;stroke:#000000;stroke-width:1px;fill-opacity:1" />
      <polygon
         points="155.739,155.739 311.477,186.717 311.477,124.76 "
         id="polygon3264"
         style="fill:#96483e;stroke:#000000;stroke-width:1px;fill-opacity:1" />
      <polygon
         points="155.739,155.739 311.477,124.76 287.767,67.52 "
         id="polygon3266"
         style="fill:#96483e;stroke:#000000;stroke-width:1px;fill-opacity:1" />
      <polygon
         points="155.739,155.739 287.767,67.52 243.957,23.71 "
         id="polygon3268"
         style="fill:#96483e;stroke:#000000;stroke-width:1px;fill-opacity:1" />
      <polygon
         points="155.739,155.739 243.957,23.71 186.717,0 "
         id="polygon3270"
         style="fill:#96483e;stroke:#000000;stroke-width:1px;fill-opacity:1" />
      <polygon
         points="155.739,155.739 186.717,0 124.76,0 "
         id="polygon3272"
         style="fill:#96483e;stroke:#000000;stroke-width:1px;fill-opacity:1" />
      <polygon
         points="155.739,155.739 124.76,0 67.52,23.71 "
         id="polygon3274"
         style="fill:#96483e;stroke:#000000;stroke-width:1px;fill-opacity:1" />
      <polygon
         points="155.739,155.739 67.52,23.71 23.71,67.52 "
         id="polygon3276"
         style="fill:#96483e;stroke:#000000;stroke-width:1px;fill-opacity:1" />
      <polygon
         points="155.739,155.739 23.71,67.52 0,124.76 "
         id="polygon3278"
         style="fill:#96483e;stroke:#000000;stroke-width:1px;fill-opacity:1" />
      <polygon
         points="155.739,155.739 0,124.76 18.183,159.504 "
         id="polygon3280"
         style="fill:#96483e;stroke:#000000;stroke-width:1px;fill-opacity:1" />
      <polygon
         points="155.739,155.739 18.183,159.504 60.076,189.532 "
         id="polygon3282"
         style="fill:#96483e;stroke:#000000;stroke-width:1px;fill-opacity:1" />
      <polygon
         points="155.739,155.739 60.076,189.532 116.426,214.575 "
         id="polygon3284"
         style="fill:#96483e;stroke:#000000;stroke-width:1px;fill-opacity:1" />
      <polygon
         points="155.739,155.739 116.426,214.575 161.126,257.052 "
         id="polygon3286"
         style="fill:#96483e;stroke:#000000;stroke-width:1px;fill-opacity:1" />
      <polygon
         points="161.126,257.052 204.9,284.264 155.739,155.739 "
         id="polygon3288"
         style="fill:#96483e;stroke:#000000;stroke-width:1px;fill-opacity:1" />
    </g>
    <g
       id="g4849">
      <polygon
         transform="matrix(0.77845363,0,0,0.77845363,9.3772441,-214.47517)"
         points="638.917,622.298 679.954,596.835 434.934,287.767 "
         id="polygon3290"
         style="fill-opacity:1;stroke:#000000;stroke-width:1px;fill:#dd1d1d" />
      <polygon
         transform="matrix(0.77845363,0,0,0.77845363,9.3772441,-214.47517)"
         points="765.174,989.033 679.954,596.835 638.917,622.298 712.605,1006.013 "
         id="polygon3292"
         style="fill-opacity:1;stroke:#000000;stroke-width:1px;fill:#dd1d1d" />
      <polygon
         transform="matrix(0.77845363,0,0,0.77845363,9.3772441,-214.47517)"
         points="596.261,639.727 638.917,622.298 434.934,287.767 "
         id="polygon3294"
         style="fill-opacity:1;stroke:#000000;stroke-width:1px;fill:#dd1d1d" />
      <polygon
         transform="matrix(0.77845363,0,0,0.77845363,9.3772441,-214.47517)"
         points="712.605,1006.013 638.917,622.298 596.261,639.727 657.597,1013.035 "
         id="polygon3296"
         style="fill-opacity:1;stroke:#000000;stroke-width:1px;fill:#dd1d1d" />
      <polygon
         transform="matrix(0.77845363,0,0,0.77845363,9.3772441,-214.47517)"
         points="554.842,653.114 596.261,639.727 434.934,287.767 "
         id="polygon3298"
         style="fill-opacity:1;stroke:#000000;stroke-width:1px;fill:#dd1d1d" />
      <polygon
         transform="matrix(0.77845363,0,0,0.77845363,9.3772441,-214.47517)"
         points="657.597,1013.035 596.261,639.727 554.842,653.114 601.989,1018.531 "
         id="polygon3300"
         style="fill-opacity:1;stroke:#000000;stroke-width:1px;fill:#dd1d1d" />
      <polygon
         transform="matrix(0.77845363,0,0,0.77845363,9.3772441,-214.47517)"
         points="514.313,662.498 554.842,653.114 434.934,287.767 "
         id="polygon3302"
         style="fill-opacity:1;stroke:#000000;stroke-width:1px;fill:#dd1d1d" />
      <polygon
         transform="matrix(0.77845363,0,0,0.77845363,9.3772441,-214.47517)"
         points="601.989,1018.531 554.842,653.114 514.313,662.498 546.319,1022.227 "
         id="polygon3304"
         style="fill-opacity:1;stroke:#000000;stroke-width:1px;fill:#dd1d1d" />
      <polygon
         transform="matrix(0.77845363,0,0,0.77845363,9.3772441,-214.47517)"
         points="474.417,667.935 514.313,662.498 434.934,287.767 "
         id="polygon3306"
         style="fill-opacity:1;stroke:#000000;stroke-width:1px;fill:#dd1d1d" />
      <polygon
         transform="matrix(0.77845363,0,0,0.77845363,9.3772441,-214.47517)"
         points="546.319,1022.227 514.313,662.498 474.417,667.935 490.616,1024 "
         id="polygon3308"
         style="fill-opacity:1;stroke:#000000;stroke-width:1px;fill:#dd1d1d" />
      <polygon
         transform="matrix(0.77845363,0,0,0.77845363,9.3772441,-214.47517)"
         points="434.933,669.505 474.417,667.935 434.934,287.767 "
         id="polygon3310"
         style="fill-opacity:1;stroke:#000000;stroke-width:1px;fill:#dd1d1d" />
      <polygon
         transform="matrix(0.77845363,0,0,0.77845363,9.3772441,-214.47517)"
         points="490.616,1024 474.417,667.935 434.933,669.505 434.933,1023.754 "
         id="polygon3312"
         style="fill-opacity:1;stroke:#000000;stroke-width:1px;fill:#dd1d1d" />
      <polygon
         transform="matrix(0.77845363,0,0,0.77845363,9.3772441,-214.47517)"
         points="395.45,667.935 434.933,669.505 434.934,287.767 "
         id="polygon3314"
         style="fill-opacity:1;stroke:#000000;stroke-width:1px;fill:#dd1d1d" />
      <polygon
         transform="matrix(0.77845363,0,0,0.77845363,9.3772441,-214.47517)"
         points="434.933,1023.754 434.933,669.505 395.45,667.935 379.251,1024 "
         id="polygon3316"
         style="fill-opacity:1;stroke:#000000;stroke-width:1px;fill:#dd1d1d" />
      <polygon
         transform="matrix(0.77845363,0,0,0.77845363,9.3772441,-214.47517)"
         points="355.554,662.498 395.45,667.935 434.934,287.767 "
         id="polygon3318"
         style="fill-opacity:1;stroke:#000000;stroke-width:1px;fill:#dd1d1d" />
      <polygon
         transform="matrix(0.77845363,0,0,0.77845363,9.3772441,-214.47517)"
         points="379.251,1024 395.45,667.935 355.554,662.498 323.548,1022.227 "
         id="polygon3320"
         style="fill-opacity:1;stroke:#000000;stroke-width:1px;fill:#dd1d1d" />
      <polygon
         transform="matrix(0.77845363,0,0,0.77845363,9.3772441,-214.47517)"
         points="315.025,653.114 355.554,662.498 434.934,287.767 "
         id="polygon3322"
         style="fill-opacity:1;stroke:#000000;stroke-width:1px;fill:#dd1d1d" />
      <polygon
         transform="matrix(0.77845363,0,0,0.77845363,9.3772441,-214.47517)"
         points="323.548,1022.227 355.554,662.498 315.025,653.114 267.878,1018.531 "
         id="polygon3324"
         style="fill-opacity:1;stroke:#000000;stroke-width:1px;fill:#dd1d1d" />
      <polygon
         transform="matrix(0.77845363,0,0,0.77845363,9.3772441,-214.47517)"
         points="273.606,639.727 315.025,653.114 434.934,287.767 "
         id="polygon3326"
         style="fill-opacity:1;stroke:#000000;stroke-width:1px;fill:#dd1d1d" />
      <polygon
         transform="matrix(0.77845363,0,0,0.77845363,9.3772441,-214.47517)"
         points="267.878,1018.531 315.025,653.114 273.606,639.727 212.27,1013.034 "
         id="polygon3328"
         style="fill-opacity:1;stroke:#000000;stroke-width:1px;fill:#dd1d1d" />
      <polygon
         transform="matrix(0.77845363,0,0,0.77845363,9.3772441,-214.47517)"
         points="230.95,622.298 273.606,639.727 434.934,287.767 "
         id="polygon3330"
         style="fill-opacity:1;stroke:#000000;stroke-width:1px;fill:#dd1d1d" />
      <polygon
         transform="matrix(0.77845363,0,0,0.77845363,9.3772441,-214.47517)"
         points="212.27,1013.034 273.606,639.727 230.95,622.298 157.261,1006.013 "
         id="polygon3332"
         style="fill-opacity:1;stroke:#000000;stroke-width:1px;fill:#dd1d1d" />
      <polygon
         transform="matrix(0.77845363,0,0,0.77845363,9.3772441,-214.47517)"
         points="189.914,596.835 230.95,622.298 434.934,287.767 "
         id="polygon3334"
         style="fill-opacity:1;stroke:#000000;stroke-width:1px;fill:#dd1d1d" />
      <polygon
         transform="matrix(0.77845363,0,0,0.77845363,9.3772441,-214.47517)"
         points="157.261,1006.013 230.95,622.298 189.914,596.835 104.693,989.032 "
         id="polygon3336"
         style="fill-opacity:1;stroke:#000000;stroke-width:1px;fill:#dd1d1d" />
      <polygon
         transform="matrix(0.77845363,0,0,0.77845363,9.3772441,-214.47517)"
         points="147.484,568.079 189.914,596.835 434.934,287.767 "
         id="polygon3338"
         style="fill-opacity:1;stroke:#000000;stroke-width:1px;fill:#dd1d1d" />
      <polygon
         transform="matrix(0.77845363,0,0,0.77845363,9.3772441,-214.47517)"
         points="104.693,989.032 189.914,596.835 147.484,568.079 52.77,970.401 "
         id="polygon3340"
         style="fill-opacity:1;stroke:#000000;stroke-width:1px;fill:#dd1d1d" />
      <polygon
         transform="matrix(0.77845363,0,0,0.77845363,9.3772441,-214.47517)"
         points="101.641,536.987 147.484,568.079 434.934,287.767 "
         id="polygon3342"
         style="fill-opacity:1;stroke:#000000;stroke-width:1px;fill:#dd1d1d" />
      <polygon
         transform="matrix(0.77845363,0,0,0.77845363,9.3772441,-214.47517)"
         points="52.77,970.401 147.484,568.079 101.641,536.987 0,953.015 "
         id="polygon3344"
         style="fill-opacity:1;stroke:#000000;stroke-width:1px;fill:#dd1d1d" />
      <polygon
         transform="matrix(0.77845363,0,0,0.77845363,9.3772441,-214.47517)"
         points="722.383,568.079 768.226,536.987 434.934,287.767 "
         id="polygon3346"
         style="fill-opacity:1;stroke:#000000;stroke-width:1px;fill:#dd1d1d" />
      <polygon
         transform="matrix(0.77845363,0,0,0.77845363,9.3772441,-214.47517)"
         points="869.867,953.016 768.226,536.987 722.383,568.079 817.097,970.402 "
         id="polygon3348"
         style="fill-opacity:1;stroke:#000000;stroke-width:1px;fill:#dd1d1d" />
      <polygon
         transform="matrix(0.77845363,0,0,0.77845363,9.3772441,-214.47517)"
         points="679.954,596.835 722.383,568.079 434.934,287.767 "
         id="polygon3350"
         style="fill-opacity:1;stroke:#000000;stroke-width:1px;fill:#dd1d1d" />
      <polygon
         transform="matrix(0.77845363,0,0,0.77845363,9.3772441,-214.47517)"
         points="679.954,596.835 765.174,989.033 817.097,970.402 722.383,568.079 "
         id="polygon3352"
         style="fill-opacity:1;stroke:#000000;stroke-width:1px;fill:#dd1d1d" />
    </g>
    <g
       transform="matrix(-0.11109256,-0.54660346,0.54660346,-0.11109256,733.2376,634.6247)"
       style="fill:#f2daf2;stroke:#000000;stroke-width:1px"
       id="g3471">
      <polygon
         points="173.778,249.269 106.959,317.819 3.265,464.346 161.166,491.179 "
         id="polygon3473"
         style="fill:#3a4498;fill-opacity:1" />
      <polygon
         points="100.913,49.788 3.204,128.047 106.959,317.819 173.778,249.269 "
         id="polygon3475"
         style="fill:#3a4498;fill-opacity:1" />
      <polygon
         points="385.61,238.415 296.391,214.347 423.706,416.037 545.362,309.814 "
         id="polygon3477"
         style="fill:#3a4498;fill-opacity:1" />
      <polygon
         points="384.271,19.414 264.057,3.373 296.391,214.347 385.61,238.415 "
         id="polygon3479"
         style="fill:#3a4498;fill-opacity:1" />
      <polygon
         points="296.391,214.347 229.981,213.636 297.079,474.585 423.706,416.037 "
         id="polygon3481"
         style="fill:#3a4498;fill-opacity:1" />
      <polygon
         points="229.981,213.636 173.778,249.269 161.166,491.179 297.079,474.585 "
         id="polygon3483"
         style="fill:#3a4498;fill-opacity:1" />
      <polygon
         points="264.057,3.373 176.635,6.48 229.981,213.636 296.391,214.347 "
         id="polygon3485"
         style="fill:#3a4498;fill-opacity:1" />
      <polygon
         points="176.635,6.48 100.913,49.788 173.778,249.269 229.981,213.636 "
         id="polygon3487"
         style="fill:#3a4498;fill-opacity:1" />
      <polygon
         points="385.61,238.415 545.362,309.814 384.271,19.414 "
         id="polygon3489"
         style="fill:#3a4498;fill-opacity:1" />
      <polygon
         points="3.265,464.346 106.959,317.819 3.204,128.047 "
         id="polygon3491"
         style="fill:#3a4498;fill-opacity:1" />
    </g>
    <g
       style="fill:#f2daf2;stroke:#000000;stroke-width:1px"
       id="g4765"
       transform="matrix(0.70128088,0,0,0.70128088,-246.50642,352.19589)">
      <polygon
         points="373.256,808.909 722.386,950.633 595.913,657.74 373.256,479.81 "
         id="polygon4767"
         style="fill:#e4c15e;fill-opacity:1" />
      <polygon
         points="678.769,368.249 429.265,481.207 629.122,633.358 874.301,664.196 "
         id="polygon4769"
         style="fill:#d4e2e3;fill-opacity:1" />
      <polygon
         points="429.265,481.207 373.256,479.81 595.913,657.74 629.122,633.358 "
         id="polygon4771"
         style="fill:#e4c15e;fill-opacity:1" />
      <polygon
         points="678.769,368.249 637.803,344.96 373.256,479.81 429.265,481.207 "
         id="polygon4773"
         style="fill:#e4c15e;fill-opacity:1" />
      <polygon
         points="874.301,664.196 938.466,676.886 717.916,342.898 678.769,368.249 "
         id="polygon4775"
         style="fill:#e4c15e;fill-opacity:1" />
      <polygon
         points="882.911,700.148 874.301,664.196 629.122,633.358 595.913,657.74 "
         id="polygon4777"
         style="fill:#e4c15e;fill-opacity:1" />
    </g>
    <g
       transform="matrix(-0.70128088,0,0,0.70128088,1081.5463,353.59372)"
       id="g4803"
       style="fill:#f2daf2;stroke:#000000;stroke-width:1px">
      <polygon
         id="polygon4805"
         points="373.256,479.81 373.256,808.909 722.386,950.633 595.913,657.74 "
         style="fill:#e4c15e;fill-opacity:1" />
      <polygon
         id="polygon4807"
         points="874.301,664.196 678.769,368.249 429.265,481.207 629.122,633.358 "
         style="fill:#d4e2e3;fill-opacity:1" />
      <polygon
         id="polygon4809"
         points="629.122,633.358 429.265,481.207 373.256,479.81 595.913,657.74 "
         style="fill:#e4c15e;fill-opacity:1" />
      <polygon
         id="polygon4811"
         points="429.265,481.207 678.769,368.249 637.803,344.96 373.256,479.81 "
         style="fill:#e4c15e;fill-opacity:1" />
      <polygon
         id="polygon4813"
         points="678.769,368.249 874.301,664.196 938.466,676.886 717.916,342.898 "
         style="fill:#e4c15e;fill-opacity:1" />
      <polygon
         id="polygon4815"
         points="595.913,657.74 882.911,700.148 874.301,664.196 629.122,633.358 "
         style="fill:#e4c15e;fill-opacity:1" />
    </g>
  </g>
  <g
     inkscape:groupmode="layer"
     id="layer2"
     inkscape:label="Taso#1" />
</svg>
